<?xml version="1.0" encoding="utf-8"?>
<!-- Generator: Adobe Illustrator 15.1.0, SVG Export Plug-In . SVG Version: 6.00 Build 0)  -->
<!DOCTYPE svg PUBLIC "-//W3C//DTD SVG 1.1//EN" "http://www.w3.org/Graphics/SVG/1.1/DTD/svg11.dtd">
<svg version="1.1" xmlns="http://www.w3.org/2000/svg" xmlns:xlink="http://www.w3.org/1999/xlink" x="0px" y="0px" width="50px"
	 height="40px" viewBox="25 15.296 50 40" enable-background="new 25 15.296 50 40" xml:space="preserve">
<g id="Calque_1">
	<g id="Calque_1_1_">
		<g>
			<g>
				<path fill="#FFFFFF" d="M34.48,25.537l0.406,0.072v5.361l-0.406-0.096v-1.057c-0.172,0.301-0.391,0.521-0.65,0.654
					s-0.539,0.164-0.844,0.092c-0.254-0.061-0.488-0.184-0.707-0.375c-0.217-0.188-0.404-0.42-0.566-0.693
					c-0.16-0.275-0.287-0.578-0.379-0.916c-0.092-0.334-0.137-0.684-0.137-1.045c0-0.355,0.045-0.686,0.137-0.984
					c0.092-0.301,0.219-0.557,0.379-0.764c0.162-0.209,0.35-0.363,0.566-0.463c0.219-0.102,0.453-0.131,0.707-0.088
					c0.305,0.055,0.584,0.201,0.844,0.443c0.26,0.244,0.479,0.549,0.65,0.916V25.537z M34.48,28.195
					c0-0.299-0.039-0.588-0.117-0.865c-0.08-0.277-0.188-0.525-0.32-0.742c-0.131-0.215-0.289-0.396-0.469-0.541
					s-0.373-0.236-0.58-0.273c-0.201-0.037-0.391-0.014-0.57,0.064c-0.176,0.08-0.33,0.201-0.463,0.363
					c-0.129,0.16-0.232,0.361-0.307,0.604c-0.074,0.238-0.111,0.504-0.111,0.793c0,0.287,0.037,0.568,0.111,0.842
					c0.072,0.275,0.176,0.521,0.307,0.744c0.133,0.223,0.287,0.412,0.463,0.566c0.18,0.156,0.369,0.258,0.57,0.303
					c0.201,0.047,0.393,0.033,0.572-0.043c0.18-0.074,0.34-0.197,0.475-0.365s0.242-0.375,0.322-0.625
					C34.441,28.77,34.48,28.494,34.48,28.195z"/>
				<path fill="#FFFFFF" d="M37.293,30.291c0.039,0.09,0.088,0.182,0.148,0.277c0.061,0.094,0.135,0.188,0.219,0.279
					c0.086,0.096,0.186,0.176,0.303,0.248c0.115,0.07,0.25,0.123,0.4,0.158c0.121,0.027,0.236,0.033,0.348,0.018
					c0.113-0.016,0.215-0.051,0.305-0.109c0.092-0.059,0.166-0.145,0.219-0.254c0.057-0.111,0.084-0.252,0.084-0.416
					c0-0.061-0.01-0.139-0.029-0.238c-0.02-0.096-0.061-0.203-0.129-0.314c-0.066-0.111-0.164-0.221-0.293-0.332
					c-0.129-0.107-0.303-0.207-0.52-0.297c-0.443-0.174-0.77-0.426-0.982-0.756c-0.211-0.328-0.318-0.68-0.318-1.053
					c0-0.191,0.029-0.373,0.088-0.545s0.143-0.32,0.254-0.445c0.111-0.121,0.246-0.215,0.4-0.275
					c0.156-0.063,0.332-0.078,0.525-0.043c0.211,0.037,0.393,0.105,0.541,0.205c0.148,0.102,0.27,0.211,0.363,0.328
					c0.094,0.119,0.166,0.23,0.211,0.338c0.049,0.105,0.08,0.182,0.098,0.23l-0.299,0.215c-0.113-0.223-0.246-0.393-0.406-0.512
					c-0.158-0.117-0.322-0.193-0.492-0.223c-0.189-0.033-0.342-0.021-0.461,0.033c-0.117,0.057-0.209,0.131-0.273,0.223
					s-0.107,0.188-0.127,0.291c-0.023,0.102-0.033,0.184-0.033,0.242s0.01,0.137,0.027,0.236c0.02,0.1,0.061,0.205,0.125,0.313
					s0.156,0.217,0.277,0.324c0.121,0.111,0.285,0.199,0.49,0.271c0.309,0.115,0.557,0.258,0.738,0.43s0.32,0.348,0.416,0.525
					c0.094,0.178,0.156,0.35,0.184,0.514s0.041,0.297,0.041,0.393c0,0.25-0.041,0.465-0.121,0.643s-0.184,0.318-0.309,0.42
					c-0.125,0.104-0.266,0.172-0.426,0.205c-0.16,0.035-0.314,0.031-0.469-0.004c-0.248-0.059-0.461-0.158-0.639-0.301
					c-0.176-0.141-0.32-0.283-0.432-0.432c-0.111-0.146-0.195-0.275-0.25-0.393c-0.055-0.115-0.082-0.176-0.082-0.184L37.293,30.291
					z"/>
				<path fill="#FFFFFF" d="M40.197,29.375c0-0.402,0.057-0.77,0.172-1.1c0.113-0.332,0.268-0.611,0.465-0.838
					c0.199-0.229,0.432-0.396,0.699-0.502c0.268-0.107,0.557-0.135,0.871-0.082c0.314,0.055,0.613,0.186,0.893,0.391
					c0.281,0.207,0.529,0.465,0.74,0.775s0.381,0.664,0.504,1.057c0.123,0.395,0.186,0.801,0.186,1.225
					c0,0.422-0.063,0.803-0.186,1.143c-0.123,0.338-0.293,0.619-0.504,0.844c-0.211,0.223-0.459,0.381-0.74,0.475
					c-0.279,0.09-0.578,0.1-0.893,0.023c-0.314-0.074-0.604-0.219-0.871-0.436c-0.268-0.215-0.5-0.479-0.699-0.787
					c-0.197-0.309-0.352-0.648-0.465-1.023C40.254,30.164,40.197,29.777,40.197,29.375z M44.244,30.178
					c0-0.332-0.049-0.656-0.146-0.973c-0.1-0.316-0.23-0.598-0.396-0.846c-0.164-0.246-0.355-0.453-0.576-0.623
					c-0.219-0.168-0.457-0.275-0.711-0.322c-0.25-0.043-0.482-0.021-0.699,0.068c-0.215,0.086-0.402,0.221-0.561,0.402
					c-0.16,0.182-0.283,0.406-0.375,0.676s-0.139,0.563-0.139,0.883s0.047,0.635,0.139,0.945c0.09,0.309,0.215,0.592,0.375,0.844
					c0.158,0.254,0.346,0.469,0.561,0.646c0.217,0.176,0.449,0.293,0.699,0.35c0.25,0.059,0.484,0.047,0.707-0.031
					s0.418-0.211,0.586-0.396c0.168-0.189,0.299-0.424,0.395-0.701C44.195,30.816,44.244,30.51,44.244,30.178z"/>
				<path fill="#FFFFFF" d="M48.934,34.275l-0.506-0.119v-0.854c-0.055,0.111-0.129,0.207-0.227,0.287
					c-0.098,0.082-0.203,0.145-0.318,0.191c-0.117,0.047-0.242,0.078-0.373,0.092s-0.256,0.008-0.375-0.02
					c-0.24-0.059-0.467-0.162-0.678-0.318c-0.209-0.154-0.389-0.342-0.541-0.563c-0.154-0.221-0.273-0.467-0.357-0.738
					c-0.086-0.271-0.129-0.557-0.129-0.854v-3.943l0.516,0.088v3.967c0,0.217,0.029,0.426,0.09,0.625s0.145,0.377,0.25,0.535
					c0.105,0.156,0.232,0.287,0.377,0.395c0.146,0.105,0.305,0.178,0.473,0.217c0.18,0.041,0.344,0.043,0.494,0.004
					c0.152-0.039,0.285-0.115,0.398-0.225s0.201-0.254,0.266-0.43c0.063-0.176,0.096-0.377,0.096-0.6v-4.064l0.545,0.094V34.275
					L48.934,34.275z"/>
				<path fill="#FFFFFF" d="M52.965,29.781c-0.066-0.09-0.146-0.174-0.242-0.252c-0.094-0.078-0.189-0.143-0.289-0.195
					c-0.098-0.051-0.193-0.094-0.287-0.129c-0.094-0.033-0.174-0.055-0.236-0.066c-0.188-0.035-0.363-0.025-0.527,0.027
					c-0.164,0.051-0.305,0.139-0.424,0.266c-0.121,0.127-0.213,0.281-0.279,0.461c-0.068,0.184-0.1,0.387-0.1,0.615v4.156
					l-0.566-0.133v-6.299l0.566,0.098v0.799c0.055-0.092,0.129-0.178,0.225-0.258c0.098-0.08,0.203-0.148,0.324-0.205
					c0.119-0.055,0.248-0.092,0.383-0.111c0.137-0.018,0.268-0.016,0.398,0.006c0.26,0.045,0.508,0.146,0.748,0.303
					c0.24,0.16,0.451,0.352,0.627,0.574L52.965,29.781z"/>
				<path fill="#FFFFFF" d="M54.207,26.336l0.83,0.123v0.965l-0.83-0.131V26.336z M54.922,35.686l-0.613-0.145v-6.564l0.613,0.107
					V35.686z"/>
				<path fill="#FFFFFF" d="M56.582,34.561c0.057,0.109,0.127,0.225,0.221,0.344c0.09,0.119,0.199,0.238,0.324,0.355
					c0.125,0.119,0.275,0.225,0.447,0.32c0.174,0.092,0.371,0.166,0.598,0.216c0.178,0.043,0.35,0.057,0.518,0.045
					c0.166-0.012,0.32-0.05,0.453-0.117c0.139-0.066,0.248-0.164,0.328-0.297c0.082-0.135,0.125-0.301,0.125-0.504
					c0-0.074-0.016-0.17-0.043-0.291c-0.029-0.121-0.094-0.252-0.193-0.393s-0.246-0.281-0.436-0.422
					c-0.193-0.141-0.453-0.273-0.775-0.395c-0.658-0.236-1.143-0.561-1.461-0.975c-0.313-0.41-0.469-0.844-0.469-1.297
					c0-0.232,0.041-0.451,0.129-0.658c0.086-0.207,0.211-0.383,0.377-0.527c0.166-0.146,0.363-0.254,0.594-0.32
					s0.49-0.076,0.781-0.025c0.314,0.055,0.582,0.146,0.805,0.275c0.221,0.131,0.402,0.27,0.541,0.42
					c0.141,0.148,0.248,0.289,0.318,0.42c0.07,0.133,0.119,0.23,0.145,0.291l-0.449,0.246c-0.166-0.277-0.365-0.492-0.605-0.645
					c-0.236-0.152-0.479-0.252-0.729-0.297c-0.283-0.051-0.514-0.045-0.689,0.02c-0.174,0.064-0.309,0.148-0.404,0.256
					c-0.096,0.109-0.158,0.225-0.189,0.348c-0.031,0.125-0.047,0.223-0.047,0.295c0,0.07,0.014,0.168,0.043,0.289
					c0.027,0.123,0.088,0.25,0.184,0.385c0.094,0.137,0.23,0.273,0.41,0.412c0.178,0.139,0.422,0.258,0.729,0.355
					c0.461,0.158,0.83,0.346,1.1,0.564c0.271,0.223,0.48,0.443,0.623,0.666c0.141,0.225,0.232,0.438,0.275,0.641
					c0.041,0.203,0.063,0.363,0.063,0.484c0,0.305-0.059,0.564-0.184,0.777c-0.121,0.213-0.273,0.379-0.459,0.496
					s-0.4,0.191-0.637,0.223c-0.24,0.031-0.471,0.02-0.697-0.033c-0.371-0.088-0.688-0.223-0.949-0.406s-0.477-0.367-0.641-0.554
					c-0.166-0.186-0.287-0.35-0.369-0.492c-0.084-0.145-0.123-0.221-0.123-0.229L56.582,34.561z"/>
				<path fill="#CABB9D" d="M30.592,32.699c0-0.373-0.059-0.693-0.174-0.961s-0.303-0.432-0.561-0.498
					c-0.268-0.068-0.459,0-0.58,0.205c-0.121,0.201-0.182,0.49-0.182,0.863c0,0.152,0.021,0.313,0.061,0.48
					c0.039,0.166,0.088,0.33,0.15,0.488c0.025,0.068,0.074,0.18,0.141,0.34c0.07,0.162,0.164,0.379,0.287,0.652
					c0.121,0.273,0.277,0.607,0.465,0.996c0.188,0.393,0.414,0.855,0.678,1.386c0.078-0.254,0.117-0.652,0.117-1.191l0.297,0.088
					c0,0.289-0.016,0.576-0.045,0.861c-0.031,0.285-0.078,0.518-0.143,0.695l0.416,0.885l-0.264,0.242l-0.344-0.74
					c-0.264,0.363-0.629,0.467-1.09,0.313c-0.203-0.068-0.395-0.189-0.572-0.365s-0.332-0.385-0.461-0.627
					c-0.131-0.24-0.232-0.506-0.309-0.801c-0.076-0.294-0.113-0.589-0.113-0.894c0-0.186,0.018-0.365,0.053-0.535
					c0.035-0.172,0.08-0.332,0.139-0.48s0.127-0.281,0.207-0.396c0.08-0.117,0.168-0.213,0.264-0.285
					c-0.074-0.174-0.133-0.361-0.18-0.559c-0.045-0.199-0.066-0.402-0.066-0.607c0-0.246,0.021-0.471,0.066-0.67
					c0.047-0.203,0.115-0.367,0.203-0.498c0.09-0.131,0.199-0.225,0.332-0.283c0.133-0.057,0.285-0.064,0.459-0.021
					c0.326,0.08,0.58,0.299,0.764,0.652c0.184,0.357,0.277,0.807,0.277,1.344L30.592,32.699z M29.221,33.846
					c-0.193,0.178-0.326,0.371-0.4,0.586c-0.076,0.213-0.115,0.477-0.115,0.787c0,0.24,0.029,0.475,0.084,0.699
					c0.057,0.229,0.135,0.436,0.234,0.623c0.102,0.191,0.221,0.354,0.359,0.488c0.139,0.137,0.287,0.23,0.447,0.283
					c0.17,0.055,0.33,0.055,0.48,0c0.15-0.057,0.279-0.156,0.383-0.299L29.221,33.846z"/>
				<path fill="#FFFFFF" d="M37.488,39.792v0.574l-3.016-1.006l0.006-0.553v-6.917l0.404,0.1v6.951l2.598,0.85L37.488,39.792z"/>
				<path fill="#FFFFFF" d="M30.969,29.708v0.37l-2.6-0.425l0.006-0.358l-0.057-9.799h0.385l0.021,9.854l2.236,0.356L30.969,29.708z
					"/>
				<path fill="#FFFFFF" d="M41.738,40.248c-0.111,0.264-0.26,0.482-0.445,0.654c-0.156,0.146-0.355,0.262-0.598,0.34
					c-0.244,0.08-0.537,0.063-0.881-0.053c-0.295-0.1-0.572-0.266-0.832-0.504c-0.258-0.234-0.48-0.512-0.668-0.834
					c-0.188-0.318-0.334-0.668-0.441-1.047s-0.16-0.762-0.16-1.152c0-0.385,0.051-0.732,0.152-1.047s0.242-0.572,0.426-0.775
					c0.18-0.203,0.393-0.345,0.637-0.427c0.246-0.082,0.512-0.084,0.795-0.008c0.287,0.076,0.557,0.227,0.809,0.449
					c0.252,0.221,0.479,0.492,0.672,0.811s0.348,0.674,0.461,1.061s0.172,0.783,0.172,1.184l-3.721-1.125
					c0,0.311,0.043,0.621,0.131,0.93c0.086,0.311,0.205,0.598,0.357,0.855c0.152,0.264,0.334,0.49,0.541,0.68
					c0.207,0.191,0.428,0.326,0.662,0.404c0.338,0.111,0.645,0.094,0.922-0.053s0.492-0.391,0.643-0.736L41.738,40.248z
					 M41.346,38.187c-0.045-0.268-0.119-0.523-0.217-0.771s-0.219-0.471-0.361-0.672s-0.303-0.371-0.479-0.512
					s-0.361-0.238-0.559-0.291c-0.193-0.055-0.377-0.061-0.549-0.018s-0.326,0.123-0.463,0.24c-0.137,0.119-0.252,0.27-0.348,0.455
					c-0.096,0.184-0.164,0.393-0.207,0.623L41.346,38.187z"/>
				<path fill="#FFFFFF" d="M49.924,35.876l0.764,0.188v0.926l-0.764-0.193V35.876z M50.584,44.74l-0.566-0.189v-6.297l0.566,0.152
					V44.74z"/>
				<path fill="#FFFFFF" d="M56.711,40.072l0.641,0.174v6.752l-0.641-0.213v-1.328c-0.273,0.34-0.613,0.563-1.025,0.672
					c-0.408,0.107-0.852,0.082-1.326-0.078c-0.398-0.131-0.768-0.34-1.107-0.629c-0.338-0.285-0.633-0.617-0.883-0.996
					c-0.252-0.377-0.445-0.783-0.59-1.225c-0.143-0.436-0.213-0.879-0.213-1.33c0-0.445,0.07-0.844,0.213-1.199
					c0.145-0.355,0.34-0.646,0.59-0.873s0.545-0.379,0.883-0.461c0.34-0.08,0.709-0.066,1.107,0.041
					c0.475,0.129,0.918,0.373,1.326,0.732c0.41,0.361,0.752,0.793,1.025,1.291V40.072z M56.711,43.416
					c0-0.377-0.063-0.748-0.186-1.115c-0.125-0.369-0.295-0.703-0.504-1.002s-0.455-0.561-0.74-0.781
					c-0.283-0.219-0.586-0.375-0.912-0.465c-0.314-0.09-0.611-0.102-0.891-0.039c-0.277,0.061-0.518,0.178-0.723,0.354
					c-0.201,0.174-0.363,0.404-0.479,0.688c-0.117,0.283-0.174,0.605-0.174,0.965s0.057,0.717,0.174,1.076
					c0.115,0.359,0.277,0.691,0.479,0.998c0.205,0.307,0.445,0.576,0.723,0.809c0.277,0.236,0.576,0.406,0.891,0.508
					c0.318,0.104,0.617,0.129,0.902,0.078c0.281-0.055,0.531-0.17,0.744-0.352c0.213-0.18,0.385-0.418,0.508-0.713
					C56.648,44.128,56.711,43.791,56.711,43.416z"/>
				<path fill="#FFFFFF" d="M59.381,47.673l-0.664-0.221v-6.838l0.664,0.184v0.865c0.064-0.092,0.154-0.174,0.27-0.248
					c0.109-0.076,0.236-0.135,0.377-0.18c0.145-0.043,0.295-0.066,0.453-0.07c0.162-0.002,0.316,0.016,0.471,0.059
					c0.314,0.084,0.613,0.229,0.893,0.426c0.283,0.199,0.531,0.436,0.742,0.713c0.217,0.275,0.387,0.582,0.516,0.916
					c0.127,0.336,0.191,0.68,0.191,1.029v4.674l-0.711-0.238v-4.643c0-0.252-0.045-0.498-0.127-0.736
					c-0.08-0.234-0.197-0.453-0.344-0.648c-0.148-0.197-0.32-0.365-0.52-0.512c-0.199-0.145-0.41-0.246-0.641-0.309
					c-0.219-0.064-0.428-0.076-0.621-0.043c-0.191,0.035-0.361,0.107-0.502,0.219s-0.25,0.26-0.33,0.445
					c-0.076,0.182-0.117,0.398-0.117,0.645V47.673L59.381,47.673z"/>
				<path fill="#FFFFFF" d="M64.328,45.736c0-0.51,0.09-0.959,0.27-1.352c0.184-0.396,0.432-0.715,0.748-0.959
					s0.688-0.406,1.117-0.482c0.43-0.078,0.898-0.049,1.406,0.088c0.506,0.137,0.988,0.367,1.441,0.691
					c0.459,0.326,0.861,0.711,1.205,1.154c0.344,0.445,0.619,0.936,0.822,1.465c0.203,0.531,0.305,1.07,0.305,1.609
					s-0.102,1.012-0.305,1.416c-0.203,0.4-0.477,0.721-0.822,0.959c-0.344,0.234-0.744,0.377-1.205,0.426
					c-0.453,0.049-0.936-0.014-1.441-0.184c-0.508-0.168-0.977-0.424-1.406-0.762s-0.801-0.725-1.117-1.162
					c-0.316-0.434-0.566-0.902-0.748-1.402C64.418,46.746,64.328,46.244,64.328,45.736z M70.854,47.681
					c0-0.426-0.082-0.852-0.244-1.277c-0.158-0.426-0.371-0.813-0.639-1.168c-0.268-0.35-0.58-0.66-0.938-0.924
					c-0.354-0.264-0.74-0.451-1.152-0.564c-0.402-0.111-0.775-0.137-1.123-0.07c-0.348,0.063-0.648,0.193-0.904,0.387
					c-0.252,0.195-0.451,0.451-0.598,0.771c-0.148,0.318-0.221,0.68-0.221,1.086c0,0.404,0.072,0.813,0.221,1.225
					c0.146,0.414,0.346,0.797,0.598,1.156c0.256,0.359,0.557,0.676,0.904,0.949c0.348,0.275,0.721,0.479,1.123,0.611
					c0.402,0.131,0.787,0.176,1.145,0.129c0.361-0.049,0.678-0.17,0.951-0.369s0.486-0.467,0.643-0.801
					C70.775,48.486,70.854,48.105,70.854,47.681z"/>
				<g>
					<path fill="#FFFFFF" d="M44.545,47.49l-0.5-0.189V36.626l0.5,0.137v1.18c0.217-0.32,0.492-0.543,0.826-0.674
						c0.334-0.129,0.703-0.139,1.109-0.029c0.336,0.092,0.656,0.262,0.963,0.508c0.307,0.248,0.576,0.547,0.805,0.895
						c0.232,0.35,0.414,0.738,0.551,1.162c0.137,0.426,0.203,0.855,0.203,1.287c0,0.441-0.066,0.832-0.203,1.174
						c-0.137,0.336-0.318,0.611-0.551,0.822c-0.229,0.209-0.498,0.342-0.805,0.406c-0.307,0.063-0.627,0.035-0.963-0.076
						c-0.406-0.137-0.775-0.373-1.109-0.709c-0.334-0.334-0.609-0.723-0.826-1.166V47.49z M44.545,39.755
						c0,0.332,0.049,0.662,0.148,0.988s0.234,0.623,0.402,0.893c0.17,0.271,0.371,0.508,0.605,0.713
						c0.236,0.205,0.492,0.355,0.77,0.445c0.271,0.092,0.529,0.107,0.773,0.059c0.248-0.051,0.463-0.158,0.648-0.32
						c0.189-0.162,0.336-0.379,0.441-0.652c0.105-0.271,0.162-0.582,0.162-0.93c0-0.346-0.057-0.691-0.162-1.033
						c-0.105-0.34-0.254-0.654-0.441-0.936c-0.186-0.283-0.4-0.527-0.648-0.73c-0.244-0.203-0.502-0.344-0.773-0.418
						c-0.271-0.076-0.525-0.078-0.758-0.012c-0.236,0.066-0.439,0.188-0.613,0.365c-0.17,0.172-0.307,0.395-0.406,0.662
						C44.594,39.121,44.545,39.421,44.545,39.755z"/>
				</g>
			</g>
		</g>
	</g>
	<g id="Calque_3" display="none">
		<polyline display="inline" fill="#FFFFFF" points="43.771,49.876 42.83,49.518 42.83,56.028 43.771,56.028 		"/>
	</g>
	<g id="Calque_2" display="none">
		<rect x="87.303" y="55.528" display="inline" fill="#FFFFFF" width="15" height="15"/>
		<rect x="87.303" y="-0.065" display="inline" fill="#FFFFFF" width="15" height="15"/>
	</g>
</g>
<g id="Calque_2_1_">
</g>
</svg>
