<svg xmlns="http://www.w3.org/2000/svg" xmlns:xlink="http://www.w3.org/1999/xlink" version="1.1" x="0px" y="0px" width="50px" height="75px" viewBox="0 0 50 75" enable-background="new 0 0 50 75" xml:space="preserve"><g><path fill="none" stroke="#010202" stroke-width="0.25" stroke-miterlimit="10" d="M4.723 40.5 c1.04 1.8 3.3 3.7 5.9 2.773c5.616-1.899 5.678-14.287-0.005-16.199c-0.557-0.188-1.613-0.197-2.256-0.089 C3.557 27.8 2.2 36.1 4.7 40.508z M34.089 26.12c1.688-1.767 3.229-3.821 6.931-3.384c1.317 0.2 2.6 0.9 3.5 1.7 c3.08 2.6 4.6 8.2 3.9 13.167c-0.638 4.803-3.369 9.477-7.445 9.967c-2.666 0.32-4.113-0.744-5.459-1.82 c-1.174 8.471-3.476 15.814-6.576 22.357c-0.383 1.233-2.788 5.646-3.895 5.719c-1.12 0.072-3.59-4.496-4.075-5.633 c-2.992-6.65-5.518-13.772-6.508-22.435c-1.448 0.94-2.595 2.138-5.453 1.824c-4.167-0.462-6.897-5.132-7.542-9.962 C0.847 32.6 2.4 27.1 5.4 24.483c0.858-0.739 2.211-1.567 3.466-1.733c3.67-0.494 5.4 1.5 6.9 3.4 c1.882-2.068 4.289-4.059 7.796-4.508C28.559 21 31.9 23.6 34.1 26.12z M36.346 40.5 c1.041 1.8 3.3 3.7 5.9 2.771c5.615-1.899 5.677-14.286-0.008-16.202c-0.553-0.187-1.61-0.197-2.254-0.084 C35.178 27.8 33.8 36.1 36.3 40.498z"/><g><path d="M24.068 20.7"/></g><path fill="#010202" d="M36.331 40.521c1.039 1.8 3.3 3.7 5.9 2.771c5.615-1.897 5.676-14.286-0.008-16.199 c-0.557-0.188-1.611-0.197-2.254-0.089C35.164 27.8 33.8 36.1 36.3 40.521z"/><path fill="#010202" d="M4.711 40.482c1.04 1.8 3.3 3.7 5.9 2.772c5.616-1.897 5.679-14.286-0.005-16.198 c-0.556-0.189-1.613-0.197-2.255-0.089C3.545 27.8 2.2 36.1 4.7 40.482z"/><path fill="#010202" d="M9.338 0.432C9.33 0.4 9.3 0.5 9.3 0.481c8.691 3.1 15.2 8.9 14.9 20.746l1.689-0.091 C25.072 9.5 18.6 3.6 9.3 0.432z"/><path fill="#010202" d="M21.87 46.023c0 0.485-0.395 0.889-0.887 0.889c-0.488 0-0.886-0.398-0.886-0.889 c0-0.486 0.397-0.887 0.884-0.887C21.476 45.1 21.9 45.5 21.9 46.023z"/><circle fill="#010202" cx="28.5" cy="46" r="0.9"/><g><rect x="13.5" y="66.5" fill="#010202" width="6.1" height="0.6"/><rect x="13.4" y="68.8" transform="matrix(-0.9238 0.3828 -0.3828 -0.9238 58.979 126.509)" fill="#010202" width="7" height="0.6"/><rect x="30.3" y="66.5" fill="#010202" width="6.1" height="0.6"/><rect x="29.5" y="68.8" transform="matrix(0.924 0.3823 -0.3823 0.924 28.9343 -7.3701)" fill="#010202" width="7" height="0.6"/></g></g></svg>