<svg xmlns="http://www.w3.org/2000/svg" viewBox="15 12.5 20 15"><g><path fill="#CABB9D" d="M16.049 18.726c0-0.172-0.027-0.32-0.081-0.444c-0.053-0.124-0.14-0.199-0.258-0.229 c-0.124-0.032-0.212 0-0.268 0.095c-0.056 0.093-0.084 0.226-0.084 0.398c0 0.1 0 0.1 0 0.2 c0.018 0.1 0 0.2 0.1 0.225l0.065 0.157l0.132 0.301c0.056 0.1 0.1 0.3 0.2 0.5 c0.087 0.2 0.2 0.4 0.3 0.641c0.036-0.117 0.054-0.302 0.054-0.55l0.137 0.041c0 0.133-0.007 0.266-0.021 0.4 c-0.015 0.132-0.036 0.239-0.065 0.321l0.192 0.408l-0.122 0.112l-0.159-0.343c-0.123 0.169-0.291 0.217-0.504 0.1 c-0.093-0.032-0.182-0.088-0.264-0.17c-0.082-0.08-0.153-0.178-0.213-0.289c-0.06-0.111-0.106-0.233-0.143-0.37 c-0.036-0.136-0.052-0.272-0.052-0.412c0-0.086 0.008-0.169 0.024-0.248c0.016-0.079 0.037-0.153 0.064-0.221 c0.026-0.068 0.058-0.13 0.095-0.183c0.037-0.055 0.078-0.099 0.122-0.132c-0.034-0.08-0.061-0.166-0.083-0.257 c-0.021-0.092-0.031-0.186-0.031-0.281c0-0.114 0.01-0.217 0.031-0.309c0.021-0.094 0.053-0.169 0.093-0.23 c0.042-0.061 0.092-0.104 0.153-0.131c0.062-0.026 0.132-0.029 0.212-0.009c0.151 0 0.3 0.1 0.4 0.3 c0.085 0.2 0.1 0.4 0.1 0.62L16.049 18.726z M15.416 19.255c-0.089 0.082-0.15 0.171-0.185 0.3 c-0.035 0.099-0.053 0.221-0.053 0.364c0 0.1 0 0.2 0 0.323c0.027 0.1 0.1 0.2 0.1 0.3 c0.048 0.1 0.1 0.2 0.2 0.226c0.064 0.1 0.1 0.1 0.2 0.131c0.078 0 0.2 0 0.2 0 c0.069-0.027 0.128-0.072 0.177-0.139L15.416 19.255z"/><g><path fill="#FFFFFF" d="M19.938 18.017c-0.042 0.027-0.088 0.043-0.141 0.051c-0.051 0.006-0.104 0.004-0.161-0.009 c-0.069-0.016-0.131-0.041-0.185-0.073c-0.054-0.033-0.1-0.069-0.14-0.114l-0.101-0.129l-0.068-0.128l-0.133 0.107l0.038 0.1 c0.025 0.1 0.1 0.1 0.1 0.182c0.052 0.1 0.1 0.1 0.2 0.199c0.082 0.1 0.2 0.1 0.3 0.1 c0.071 0 0.1 0 0.2 0.002c0.074-0.015 0.139-0.047 0.197-0.095c0.058-0.047 0.105-0.112 0.143-0.194 c0.037-0.082 0.056-0.181 0.056-0.296l-0.019-0.182c-0.013-0.075-0.042-0.155-0.085-0.237c-0.044-0.082-0.108-0.163-0.192-0.242 c-0.083-0.08-0.198-0.146-0.34-0.199c-0.095-0.033-0.171-0.074-0.226-0.125c-0.056-0.05-0.099-0.1-0.128-0.15 c-0.029-0.05-0.048-0.098-0.057-0.145l-0.013-0.108l0.015-0.112c0.01-0.048 0.029-0.092 0.059-0.135 c0.029-0.042 0.072-0.077 0.126-0.102c0.055-0.025 0.125-0.031 0.212-0.016c0.078 0 0.2 0 0.2 0.1 c0.073 0.1 0.1 0.1 0.2 0.236l0.138-0.099l-0.045-0.106c-0.021-0.05-0.054-0.101-0.097-0.156 c-0.043-0.054-0.099-0.104-0.168-0.151c-0.068-0.046-0.153-0.078-0.25-0.095c-0.089-0.015-0.17-0.009-0.242 0 c-0.071 0.028-0.133 0.071-0.184 0.127c-0.052 0.058-0.091 0.126-0.117 0.205c-0.028 0.08-0.042 0.164-0.042 0.3 c0 0.2 0 0.3 0.1 0.486c0.098 0.2 0.2 0.3 0.5 0.349c0.1 0 0.2 0.1 0.2 0.1 c0.06 0.1 0.1 0.1 0.1 0.153c0.031 0.1 0.1 0.1 0.1 0.145l0.013 0.11c0 0.076-0.012 0.141-0.039 0.2 C20.014 17.9 20 18 19.9 18.017z"/><path fill="#FFFFFF" d="M17.844 17.883l0.188 0.044v-2.474l-0.188-0.034v0.488c-0.08-0.169-0.18-0.31-0.3-0.423 c-0.12-0.112-0.249-0.179-0.39-0.205c-0.117-0.021-0.225-0.007-0.326 0.041c-0.1 0.046-0.187 0.118-0.262 0.2 c-0.074 0.096-0.132 0.214-0.175 0.353c-0.042 0.138-0.063 0.291-0.063 0.455c0 0.2 0 0.3 0.1 0.5 c0.042 0.2 0.1 0.3 0.2 0.423c0.075 0.1 0.2 0.2 0.3 0.32c0.101 0.1 0.2 0.1 0.3 0.2 c0.141 0 0.3 0 0.39-0.042c0.12-0.061 0.221-0.163 0.3-0.302V17.883z M17.79 17 c-0.037 0.115-0.086 0.211-0.148 0.289c-0.063 0.078-0.136 0.134-0.219 0.168c-0.083 0.035-0.171 0.042-0.264 0 s-0.181-0.068-0.263-0.14c-0.082-0.071-0.152-0.158-0.214-0.261c-0.06-0.103-0.108-0.217-0.142-0.344 c-0.034-0.126-0.051-0.256-0.051-0.389c0-0.133 0.017-0.256 0.051-0.366c0.034-0.112 0.083-0.205 0.142-0.279 c0.062-0.075 0.132-0.131 0.214-0.168c0.083-0.036 0.17-0.047 0.263-0.029c0.096 0 0.2 0.1 0.3 0.1 c0.083 0.1 0.2 0.2 0.2 0.25c0.061 0.1 0.1 0.2 0.1 0.342c0.036 0.1 0.1 0.3 0.1 0.4 C17.844 16.8 17.8 16.9 17.8 17.028z"/><path fill="#FFFFFF" d="M22.574 17.619c0-0.195-0.029-0.383-0.085-0.565c-0.057-0.181-0.135-0.345-0.232-0.488 c-0.098-0.144-0.212-0.262-0.342-0.358c-0.129-0.094-0.268-0.155-0.412-0.18c-0.145-0.025-0.279-0.012-0.402 0 c-0.124 0.049-0.23 0.126-0.323 0.231c-0.091 0.105-0.162 0.234-0.214 0.387c-0.053 0.152-0.079 0.322-0.079 0.5 s0.026 0.4 0.1 0.538c0.052 0.2 0.1 0.3 0.2 0.472c0.092 0.1 0.2 0.3 0.3 0.4 c0.123 0.1 0.3 0.2 0.4 0.202c0.145 0 0.3 0 0.412-0.011c0.13-0.043 0.244-0.117 0.342-0.219 c0.097-0.104 0.176-0.233 0.232-0.39S22.574 17.8 22.6 17.619z M22.286 17.988c-0.044 0.128-0.104 0.236-0.182 0.3 c-0.078 0.085-0.167 0.147-0.271 0.183c-0.103 0.037-0.211 0.042-0.326 0.015c-0.116-0.027-0.223-0.08-0.323-0.162 c-0.099-0.082-0.187-0.181-0.259-0.298c-0.073-0.117-0.131-0.247-0.173-0.39c-0.043-0.143-0.064-0.289-0.064-0.437 s0.021-0.283 0.064-0.407c0.043-0.125 0.1-0.229 0.173-0.313c0.074-0.084 0.16-0.146 0.259-0.185 c0.101-0.042 0.208-0.052 0.323-0.032c0.117 0 0.2 0.1 0.3 0.149c0.103 0.1 0.2 0.2 0.3 0.3 c0.077 0.1 0.1 0.2 0.2 0.391c0.045 0.1 0.1 0.3 0.1 0.449C22.351 17.7 22.3 17.9 22.3 17.988z"/><path fill="#FFFFFF" d="M23.123 18.852c0.071 0.1 0.2 0.2 0.2 0.26c0.098 0.1 0.2 0.1 0.3 0.1 c0.055 0 0.1 0 0.2 0.009c0.06-0.007 0.118-0.021 0.172-0.042c0.053-0.021 0.102-0.05 0.147-0.088 c0.045-0.037 0.079-0.081 0.104-0.132v0.395l0.234 0.055h0.001v-2.878l-0.251-0.043v1.876c0 0.103-0.016 0.196-0.045 0.3 c-0.03 0.082-0.071 0.148-0.123 0.199c-0.052 0.051-0.113 0.086-0.183 0.104c-0.069 0.018-0.145 0.017-0.229-0.002 c-0.078-0.018-0.151-0.052-0.218-0.101c-0.067-0.05-0.126-0.11-0.174-0.182c-0.048-0.073-0.087-0.156-0.115-0.247 c-0.029-0.092-0.042-0.188-0.042-0.289v-1.832l-0.238-0.041v1.82c0 0.1 0 0.3 0.1 0.4 C22.997 18.6 23.1 18.8 23.1 18.852z"/><path fill="#FFFFFF" d="M25.891 17.083L26 17.113l0.133 0.06c0.045 0 0.1 0.1 0.1 0.1 c0.045 0 0.1 0.1 0.1 0.117l0.148-0.159c-0.082-0.102-0.18-0.191-0.289-0.264c-0.111-0.073-0.225-0.12-0.346-0.14 c-0.061-0.01-0.121-0.011-0.184-0.003c-0.063 0.009-0.121 0.026-0.176 0.051c-0.057 0.026-0.105 0.058-0.151 0.1 c-0.045 0.037-0.078 0.077-0.104 0.119v-0.369l-0.262-0.045v2.908l0.262 0.062v-1.918c0-0.105 0.015-0.199 0.047-0.284 c0.029-0.083 0.072-0.154 0.128-0.213c0.056-0.059 0.121-0.099 0.195-0.123C25.723 17.1 25.8 17.1 25.9 17.083z"/><polygon fill="#FFFFFF" points="27.3,20.1 27.3,17.1 27,17 27,20"/><polygon fill="#FFFFFF" points="27.3,15.8 27,15.8 27,16.2 27.3,16.3"/><path fill="#FFFFFF" d="M29.432 20.397c0.086-0.055 0.156-0.131 0.211-0.229c0.059-0.099 0.086-0.218 0.086-0.359 c0-0.056-0.01-0.129-0.029-0.224c-0.02-0.094-0.063-0.192-0.127-0.295s-0.162-0.205-0.287-0.308 c-0.125-0.101-0.295-0.188-0.508-0.26c-0.143-0.044-0.256-0.099-0.338-0.164c-0.082-0.065-0.145-0.127-0.189-0.19 c-0.043-0.063-0.072-0.121-0.084-0.178l-0.02-0.134l0.021-0.136c0.014-0.057 0.043-0.11 0.088-0.161 c0.043-0.05 0.105-0.088 0.186-0.118s0.188-0.033 0.318-0.009c0.115 0 0.2 0.1 0.3 0.1 c0.111 0.1 0.2 0.2 0.3 0.298l0.209-0.114l-0.068-0.135c-0.031-0.06-0.082-0.125-0.146-0.193 c-0.064-0.069-0.148-0.133-0.25-0.194c-0.104-0.06-0.227-0.102-0.371-0.126c-0.135-0.024-0.254-0.02-0.361 0 c-0.105 0.03-0.197 0.08-0.275 0.147c-0.076 0.067-0.133 0.148-0.174 0.243c-0.039 0.096-0.059 0.197-0.059 0.3 c0 0.2 0.1 0.4 0.2 0.599c0.146 0.2 0.4 0.3 0.7 0.45c0.148 0.1 0.3 0.1 0.4 0.2 c0.086 0.1 0.2 0.1 0.2 0.195c0.045 0.1 0.1 0.1 0.1 0.181l0.02 0.135c0 0.093-0.02 0.17-0.057 0.2 c-0.037 0.062-0.088 0.107-0.152 0.138c-0.061 0.031-0.133 0.048-0.209 0.053c-0.078 0.006-0.156-0.001-0.238-0.021 c-0.105-0.022-0.197-0.057-0.275-0.099c-0.08-0.044-0.15-0.093-0.207-0.148c-0.059-0.054-0.109-0.109-0.15-0.164 c-0.043-0.055-0.076-0.109-0.102-0.159l-0.191 0.123l0.055 0.106c0.039 0.1 0.1 0.1 0.2 0.2 c0.074 0.1 0.2 0.2 0.3 0.255c0.121 0.1 0.3 0.1 0.4 0.188c0.104 0 0.2 0 0.3 0 C29.246 20.5 29.3 20.5 29.4 20.397z"/><polygon fill="#FFFFFF" points="18,21.6 18,18.4 17.8,18.4 17.8,21.5 17.8,21.8 19.2,22.3 19.2,22 19.2,22"/><polygon fill="#FFFFFF" points="15.2,17.2 15.2,12.6 15,12.6 15,17.2 15,17.3 16.2,17.5 16.2,17.3 16.2,17.3"/><path fill="#FFFFFF" d="M21.161 21.042c-0.052-0.179-0.124-0.342-0.213-0.489s-0.194-0.273-0.31-0.375 c-0.117-0.103-0.241-0.173-0.374-0.208c-0.131-0.035-0.254-0.034-0.367 0.004c-0.113 0.038-0.211 0.104-0.294 0.2 c-0.084 0.094-0.15 0.212-0.196 0.358c-0.047 0.145-0.071 0.306-0.071 0.482c0 0.2 0 0.4 0.1 0.5 c0.049 0.2 0.1 0.3 0.2 0.483c0.086 0.1 0.2 0.3 0.3 0.385c0.121 0.1 0.2 0.2 0.4 0.2 c0.159 0.1 0.3 0.1 0.4 0.024c0.112-0.035 0.204-0.09 0.276-0.157c0.086-0.078 0.154-0.18 0.206-0.302l-0.169-0.181 c-0.07 0.158-0.169 0.271-0.297 0.339c-0.128 0.068-0.27 0.075-0.426 0.025c-0.107-0.036-0.21-0.099-0.306-0.187 c-0.096-0.089-0.179-0.193-0.25-0.314c-0.069-0.119-0.125-0.252-0.164-0.395c-0.041-0.143-0.061-0.286-0.061-0.43l1.718 0.5 C21.24 21.4 21.2 21.2 21.2 21.042z M19.544 20.822c0.02-0.106 0.051-0.202 0.095-0.287s0.097-0.155 0.16-0.21 c0.064-0.055 0.134-0.091 0.214-0.111c0.08-0.02 0.164-0.018 0.3 0.009c0.091 0 0.2 0.1 0.3 0.1 c0.082 0.1 0.2 0.1 0.2 0.236c0.066 0.1 0.1 0.2 0.2 0.311c0.045 0.1 0.1 0.2 0.1 0.356L19.544 20.822z"/><polygon fill="#FFFFFF" points="25,24.2 25.3,24.3 25.3,21.4 25,21.3"/><polygon fill="#FFFFFF" points="25,20.6 25.3,20.7 25.3,20.3 25,20.2"/><path fill="#FFFFFF" d="M28.107 22.744c-0.127-0.23-0.285-0.43-0.475-0.596c-0.188-0.166-0.393-0.279-0.611-0.339 c-0.184-0.05-0.355-0.056-0.512-0.019c-0.156 0.038-0.293 0.108-0.406 0.213c-0.117 0.104-0.207 0.238-0.273 0.4 c-0.066 0.164-0.098 0.348-0.098 0.553c0 0.2 0 0.4 0.1 0.614c0.066 0.2 0.2 0.4 0.3 0.6 c0.113 0.2 0.2 0.3 0.4 0.46c0.156 0.1 0.3 0.2 0.5 0.29c0.219 0.1 0.4 0.1 0.6 0 c0.189-0.05 0.348-0.153 0.475-0.311v0.614l0.295 0.098V22.21l-0.295-0.08V22.744z M28.02 24.1 c-0.057 0.137-0.135 0.246-0.234 0.33c-0.098 0.084-0.213 0.138-0.344 0.163c-0.131 0.023-0.27 0.011-0.416-0.037 c-0.145-0.047-0.283-0.125-0.412-0.234c-0.127-0.107-0.238-0.231-0.332-0.374c-0.096-0.142-0.17-0.295-0.223-0.46 c-0.053-0.166-0.08-0.331-0.08-0.496c0-0.168 0.027-0.316 0.08-0.446c0.055-0.131 0.129-0.237 0.223-0.318 s0.205-0.135 0.332-0.162c0.129-0.029 0.268-0.023 0.4 0.018c0.15 0 0.3 0.1 0.4 0.2 c0.133 0.1 0.2 0.2 0.3 0.361c0.098 0.1 0.2 0.3 0.2 0.463c0.057 0.2 0.1 0.3 0.1 0.5 C28.107 23.8 28.1 24 28 24.139z"/><path fill="#FFFFFF" d="M30.818 23.188c-0.096-0.128-0.211-0.237-0.342-0.328c-0.129-0.092-0.268-0.158-0.412-0.198 c-0.072-0.02-0.143-0.027-0.219-0.026c-0.07 0.001-0.141 0.012-0.209 0.031c-0.064 0.021-0.123 0.048-0.174 0.1 c-0.053 0.034-0.094 0.071-0.125 0.113v-0.399l-0.305-0.084v3.156l0.305 0.102v-2.081c0-0.115 0.02-0.214 0.055-0.298 c0.037-0.086 0.088-0.153 0.152-0.205c0.064-0.053 0.143-0.085 0.232-0.102c0.088-0.016 0.186-0.01 0.3 0 c0.107 0 0.2 0.1 0.3 0.143c0.094 0.1 0.2 0.1 0.2 0.236c0.068 0.1 0.1 0.2 0.2 0.3 c0.039 0.1 0.1 0.2 0.1 0.34v2.143l0.328 0.11v-2.158c0-0.16-0.031-0.319-0.088-0.475 C30.998 23.5 30.9 23.3 30.8 23.188z"/><path fill="#FFFFFF" d="M34.857 25.023c-0.092-0.243-0.221-0.471-0.379-0.676c-0.158-0.204-0.344-0.383-0.555-0.533 c-0.211-0.149-0.434-0.256-0.666-0.318c-0.234-0.063-0.451-0.077-0.65-0.04c-0.197 0.034-0.369 0.109-0.516 0.2 c-0.145 0.112-0.26 0.26-0.344 0.442s-0.125 0.389-0.125 0.625c0 0.2 0 0.5 0.1 0.7 c0.084 0.2 0.2 0.4 0.3 0.647c0.146 0.2 0.3 0.4 0.5 0.537c0.199 0.2 0.4 0.3 0.7 0.4 c0.232 0.1 0.5 0.1 0.7 0.084c0.211-0.022 0.396-0.088 0.555-0.196c0.158-0.109 0.287-0.257 0.379-0.442 C34.953 26.2 35 26 35 25.767C35 25.5 35 25.3 34.9 25.023z M34.527 26.169c-0.072 0.154-0.172 0.278-0.297 0.4 c-0.125 0.093-0.273 0.147-0.439 0.17c-0.164 0.022-0.342 0.001-0.529-0.059c-0.184-0.063-0.357-0.155-0.518-0.283 c-0.16-0.126-0.299-0.271-0.418-0.438c-0.115-0.166-0.207-0.343-0.275-0.534c-0.068-0.189-0.102-0.379-0.102-0.564 c0-0.188 0.033-0.354 0.102-0.502s0.16-0.267 0.275-0.356c0.119-0.089 0.258-0.149 0.418-0.179c0.16-0.03 0.334-0.019 0.5 0 c0.191 0.1 0.4 0.1 0.5 0.26s0.309 0.3 0.4 0.427c0.123 0.2 0.2 0.3 0.3 0.5 c0.074 0.2 0.1 0.4 0.1 0.589C34.635 25.8 34.6 26 34.5 26.169z"/><path fill="#FFFFFF" d="M24.2 21.47c-0.106-0.16-0.23-0.298-0.372-0.412s-0.29-0.192-0.445-0.235 c-0.188-0.051-0.357-0.045-0.512 0.014C22.717 20.9 22.6 21 22.5 21.147v-0.545l-0.231-0.064v4.929l0.231 0.088V22.81 c0.1 0.2 0.2 0.4 0.4 0.538c0.154 0.2 0.3 0.3 0.5 0.327c0.155 0.1 0.3 0.1 0.4 0 c0.142-0.028 0.266-0.091 0.372-0.187c0.107-0.098 0.191-0.225 0.254-0.38c0.063-0.158 0.093-0.338 0.093-0.542 c0-0.199-0.03-0.397-0.093-0.594S24.307 21.6 24.2 21.47z M24.238 22.965c-0.048 0.126-0.116 0.227-0.204 0.3 c-0.085 0.075-0.185 0.124-0.299 0.148c-0.113 0.021-0.231 0.015-0.356-0.028c-0.129-0.041-0.248-0.109-0.356-0.204 c-0.108-0.096-0.201-0.205-0.279-0.33c-0.078-0.124-0.14-0.262-0.186-0.412c-0.046-0.151-0.068-0.304-0.068-0.456 c0-0.154 0.022-0.293 0.068-0.418c0.046-0.124 0.109-0.227 0.188-0.305c0.081-0.083 0.174-0.139 0.283-0.17 c0.108-0.03 0.225-0.029 0.4 0.006c0.125 0 0.2 0.1 0.4 0.192c0.114 0.1 0.2 0.2 0.3 0.3 c0.086 0.1 0.2 0.3 0.2 0.433c0.049 0.2 0.1 0.3 0.1 0.476C24.313 22.7 24.3 22.8 24.2 22.965z"/></g></g></svg>