<svg xmlns="http://www.w3.org/2000/svg" viewBox="0 0 200 300"><g><path fill="#FFFFFF" d="M41.343 108.877c-1.257-0.427-3.246-0.672-5.456-0.672c-1.432 0-2.835 0.103-3.953 0.3 c-6.803 1.164-12.351 5.935-16.043 13.796c-5.935 12.634-5.529 30.6 0.9 41.851c3.463 6 10.2 12.4 18.8 12.4 c0 0 0 0 0 0c1.899 0 3.82-0.324 5.709-0.963c12.13-4.101 17.55-19.779 17.541-33.5C58.897 129.5 54.3 113.2 41.3 108.877z M35.655 175.589c-8.169-0.001-14.631-6.171-17.954-11.946c-6.324-10.967-6.712-28.562-0.904-40.927 c2.474-5.266 7.137-11.837 15.305-13.235c1.063-0.178 2.407-0.276 3.786-0.276c2.104 0 4 0.2 5.1 0.6 c12.449 4.2 16.9 20 16.9 32.302c0.009 13.362-5.201 28.61-16.861 32.552C39.259 175.3 37.4 175.6 35.7 175.589z "/><path fill="#FFFFFF" d="M169.794 108.82c-1.251-0.423-3.223-0.667-5.409-0.667c-1.454 0-2.871 0.108-3.986 0.3 c-6.806 1.161-12.355 5.927-16.05 13.784c-5.938 12.63-5.533 30.6 0.9 41.858c3.469 6 10.2 12.4 18.8 12.4 c0.001 0 0 0 0 0c1.899 0 3.82-0.324 5.71-0.964c12.127-4.101 17.548-19.771 17.542-33.484 C187.356 129.5 182.8 113.2 169.8 108.82z M164.111 175.543c-0.001 0-0.001 0-0.002 0 c-8.16-0.001-14.625-6.17-17.953-11.943c-6.326-10.975-6.714-28.573-0.902-40.933c2.475-5.263 7.14-11.83 15.314-13.224 c1.063-0.187 2.418-0.289 3.816-0.289c2.082 0 3.9 0.2 5.1 0.614c12.457 4.2 16.9 20 16.9 32.3 c0.006 13.354-5.205 28.595-16.862 32.536C167.714 175.2 165.9 175.5 164.1 175.543z"/><path fill="#FFFFFF" d="M179.452 98.355c-2.193-1.888-8.015-6.366-14.69-7.151c-1.38-0.164-2.731-0.247-4.017-0.247 c-11.307 0-17.159 6.256-22.819 12.306c-0.45 0.481-0.899 0.961-1.352 1.438c-12.194-14.022-26.56-20.093-42.681-18.06 C78.962 88.5 69.2 97.2 62.3 104.697c-5.553-6.47-11.869-13.752-23.8-13.752c-1.418 0-2.909 0.104-4.431 0.3 c-5.252 0.697-10.852 4.154-14.34 7.156C7.476 108.9 0.9 131.1 3.8 152.355c2.522 18.9 13.1 38.9 31.1 40.9 c1.274 0.1 2.5 0.2 3.7 0.211c7.698 0 12.055-3.038 16.27-5.976c0.614-0.428 1.228-0.855 1.852-1.274 c4.479 38.1 16.4 68.4 26.4 90.465c1.679 3.9 11.8 23.2 16.9 23.181l0.141-0.005 c5.044-0.331 14.871-19.076 16.238-23.514c13.342-28.14 22.061-57.621 26.643-90.092c5.045 4 10 7.2 18 7.2 c1.234 0 2.528-0.08 3.848-0.239c17.633-2.12 28.268-22.694 30.686-40.912C198.31 131 191.7 108.9 179.5 98.355z M194.488 152.153c-2.369 17.848-12.71 37.995-29.813 40.052c-1.28 0.153-2.534 0.231-3.729 0.2 c-8.024 0.001-12.931-3.404-18.067-7.519l-0.687-0.55l-0.121 0.872c-4.534 32.713-13.261 62.37-26.703 90.7 c-1.681 5.435-11.405 22.616-15.374 22.877l-0.076 0.003c-4.028 0-13.664-17.131-15.99-22.582 c-9.983-22.196-22.005-52.597-26.394-90.986l-0.092-0.803l-0.677 0.44c-0.869 0.564-1.712 1.152-2.554 1.7 c-4.276 2.98-8.314 5.796-15.698 5.796c-1.133 0-2.336-0.068-3.574-0.205c-17.333-1.917-27.801-22.095-30.191-40.032 C1.94 131.3 8.4 109.5 20.4 99.168c3.379-2.909 8.785-6.254 13.82-6.923c1.479-0.199 2.924-0.3 4.298-0.3 c11.538 0 17.4 6.9 23.1 13.512l0.644 0.749l0.38-0.418c6.781-7.453 16.474-16.251 31.36-18.154 c2.004-0.253 4.004-0.381 5.947-0.381c13.686 0 25.5 6.1 36.2 18.518l0.359 0.419l0.382-0.399 c0.582-0.608 1.159-1.226 1.738-1.844c5.515-5.894 11.216-11.989 22.089-11.989c1.246 0 2.6 0.1 3.9 0.2 c6.402 0.8 12 5.1 14.2 6.917C190.825 109.4 197.3 131.2 194.5 152.153z"/><path fill="#FFFFFF" d="M96.392 85.569l6.862-0.372c-3.33-47.124-29.71-71.188-67.241-84.103L35.91 1.3 C71.216 14 97.8 37.4 96.4 85.569z"/><path fill="#FFFFFF" d="M83.308 182.695c-1.979 0-3.591 1.619-3.591 3.603c0 2 1.6 3.6 3.6 3.6 c2.001 0 3.605-1.629 3.605-3.603C86.921 184.3 85.3 182.7 83.3 182.695z"/><path fill="#FFFFFF" d="M113.896 182.68c-1.994 0-3.599 1.613-3.599 3.596c0 2 1.6 3.6 3.6 3.6 c1.992 0 3.592-1.615 3.592-3.609C117.488 184.3 115.9 182.7 113.9 182.68z"/><rect x="53" y="269.5" fill="#FFFFFF" width="24.7" height="2.5"/><polygon fill="#FFFFFF" points="53.1,284.5 54,286.7 80.4,275.8 79.5,273.5"/><rect x="121.2" y="269.5" fill="#FFFFFF" width="24.7" height="2.5"/><polygon fill="#FFFFFF" points="118.5,275.8 144.9,286.7 145.9,284.4 119.5,273.5"/></g></svg>